<svg xmlns="http://www.w3.org/2000/svg" viewBox="0 0 400 300" width="400" height="300">
<defs><pattern id="dots3" width="12" height="12" patternUnits="userSpaceOnUse"><circle cx="6" cy="6" r="2" fill="#000" opacity=".07"/></pattern>
<clipPath id="frame2"><rect x="4" y="4" width="392" height="292" rx="14"/></clipPath></defs>
<g clip-path="url(#frame2)">
<rect width="400" height="300" fill="#FFE7A8"/><rect width="400" height="300" fill="url(#dots3)"/>
<rect x="0" y="262" width="400" height="40" fill="#E8C27A"/><line x1="0" y1="262" x2="400" y2="262" stroke="#16213E" stroke-width="3"/><g transform="translate(205 150) scale(1.25 1.25)"><ellipse cx="-4" cy="-26" rx="15" ry="22" transform="rotate(-25 -4 -26)" fill="#CDEBFF" stroke="#16213E" stroke-width="3.5" opacity=".95"/><ellipse cx="12" cy="-24" rx="13" ry="20" transform="rotate(20 12 -24)" fill="#CDEBFF" stroke="#16213E" stroke-width="3.5" opacity=".95"/><defs><clipPath id="pipclip2"><ellipse cx="6" cy="0" rx="30" ry="22"/></clipPath></defs><path d="M34 -2 L46 2 L34 7 Z" fill="#16213E"/><ellipse cx="6" cy="0" rx="30" ry="22" fill="#FFC53D"/><g clip-path="url(#pipclip2)"><rect x="6" y="-30" width="9" height="60" fill="#16213E"/><rect x="23" y="-30" width="8" height="60" fill="#16213E"/></g><ellipse cx="6" cy="0" rx="30" ry="22" fill="none" stroke="#16213E" stroke-width="4"/><path d="M-30 -22 q-6 -16 -16 -16 M-22 -24 q0 -16 8 -20" fill="none" stroke="#16213E" stroke-width="3" stroke-linecap="round"/><circle cx="-46" cy="-38" r="4" fill="#16213E"/><circle cx="-14" cy="-44" r="4" fill="#16213E"/><circle cx="-24" cy="-4" r="19" fill="#FFC53D" stroke="#16213E" stroke-width="4"/><circle cx="-31" cy="-8" r="5" fill="#16213E"/><circle cx="-29.5" cy="-9.5" r="1.7" fill="#fff"/><circle cx="-18" cy="-8" r="5" fill="#16213E"/><circle cx="-16.5" cy="-9.5" r="1.7" fill="#fff"/><circle cx="-35" cy="2" r="3.5" fill="#FF8FA3" opacity=".7"/><circle cx="-13" cy="2" r="3.5" fill="#FF8FA3" opacity=".7"/><path d="M-31 3 Q-24 11 -17 3" fill="none" stroke="#16213E" stroke-width="3" stroke-linecap="round"/></g><g transform="translate(200 180)"><path d="M-75.0 0 L-75.0 82 A75.0 25.500000000000004 0 0 0 75.0 82 L75.0 0 Z" fill="#C9D2E3" stroke="#16213E" stroke-width="4" stroke-linejoin="round"/><rect x="-75.0" y="28.7" width="150" height="26.240000000000002" fill="#E03E52" stroke="#16213E" stroke-width="3"/><text x="0" y="48.379999999999995" text-anchor="middle" font-family="Impact,'Arial Black','Helvetica Neue',sans-serif" font-size="19.68" fill="#fff">TIN</text><path d="M-75.0 14.76 A75.0 25.500000000000004 0 0 0 75.0 14.76" fill="none" stroke="#9AA6BE" stroke-width="3"/><path d="M-75.0 69.7 A75.0 25.500000000000004 0 0 0 75.0 69.7" fill="none" stroke="#9AA6BE" stroke-width="3"/><rect x="-65.0" y="8" width="8" height="72" rx="4" fill="#fff" opacity=".55"/><ellipse cx="0" cy="0" rx="75.0" ry="25.500000000000004" fill="#5B6478" stroke="#16213E" stroke-width="4"/><ellipse cx="0" cy="2" rx="68.0" ry="20.500000000000004" fill="#3B4255"/></g><rect x="10" y="10" width="272.79999999999995" height="38" rx="6" fill="#FFF3B0" stroke="#16213E" stroke-width="3.5"/><text x="24" y="36" font-family="'Comic Sans MS','Chalkboard SE','Marker Felt','Comic Neue',cursive,sans-serif" font-weight="700" font-size="19" fill="#16213E">In the tin is an insect.</text><path d="M294.0 114 L232 128 L317.4 112" fill="#fff" stroke="#16213E" stroke-width="4" stroke-linejoin="round"/><rect x="255" y="70" width="130" height="46" rx="23.0" fill="#fff" stroke="#16213E" stroke-width="4"/><rect x="292.0" y="108" width="26.0" height="8" fill="#fff"/><text x="320.0" y="100.2" text-anchor="middle" font-family="'Comic Sans MS','Chalkboard SE','Marker Felt','Comic Neue',cursive,sans-serif" font-weight="700" font-size="20" fill="#16213E">Hi! I'm Pip!</text><path d="M110 120 l6 -14 l6 14 l14 6 l-14 6 l-6 14 l-6 -14 l-14 -6 Z" fill="#fff" stroke="#16213E" stroke-width="3"/>
</g>
<rect x="4" y="4" width="392" height="292" rx="14" fill="none" stroke="#16213E" stroke-width="6"/>
<circle cx="378" cy="278" r="13" fill="#16213E"/><text x="378" y="284" text-anchor="middle" font-family="Impact,'Arial Black','Helvetica Neue',sans-serif" font-size="16" fill="#fff">2</text>
</svg>